<?xml version="1.0" encoding="UTF-8" standalone="no"?>
<!-- Created with Inkscape (http://www.inkscape.org/) -->

<svg
   version="1.1"
   id="svg1"
   width="778"
   height="281"
   viewBox="0 0 778 281"
   sodipodi:docname="ppppppppLogo2.svg"
   inkscape:version="1.4.2 (f4327f4, 2025-05-13)"
   xmlns:inkscape="http://www.inkscape.org/namespaces/inkscape"
   xmlns:sodipodi="http://sodipodi.sourceforge.net/DTD/sodipodi-0.dtd"
   xmlns="http://www.w3.org/2000/svg"
   xmlns:svg="http://www.w3.org/2000/svg">
  <defs
     id="defs1" />
  <sodipodi:namedview
     id="namedview1"
     pagecolor="#ffffff"
     bordercolor="#000000"
     borderopacity="0.25"
     inkscape:showpageshadow="2"
     inkscape:pageopacity="0.0"
     inkscape:pagecheckerboard="0"
     inkscape:deskcolor="#d1d1d1"
     inkscape:zoom="1.295232"
     inkscape:cx="380.24077"
     inkscape:cy="157.11472"
     inkscape:window-width="1920"
     inkscape:window-height="974"
     inkscape:window-x="-11"
     inkscape:window-y="-11"
     inkscape:window-maximized="1"
     inkscape:current-layer="g1" />
  <g
     inkscape:groupmode="layer"
     inkscape:label="Image"
     id="g1">
    <path
       style="fill:#ffffff;fill-opacity:1"
       d="M 122.51124,279.17728 C 83.413955,272.78704 50.186769,251.72557 28.652623,219.68381 17.618945,203.26623 11.184179,188.02128 6.7038628,167.68381 3.6306042,153.73339 3.6419039,126.29667 6.726798,111.9954 21.060574,45.545431 76.189035,0.471252 143.04604,0.537955 c 37.94891,0.03786 71.78992,13.937355 97.86571,40.196315 20.39125,20.534486 32.3655,42.838933 38.62645,71.94954 2.59925,12.08537 2.59408,42.95654 -0.009,55 -12.20619,56.46869 -54.8384,99.4445 -109.64203,110.52572 -11.02128,2.22849 -36.4803,2.74854 -47.37571,0.96775 z m -17.23543,-38.1242 c 16.92328,-5.56085 17.22688,-5.71175 24.46394,-12.15971 l 7.328,-6.52898 -0.328,8.66231 c -0.1804,4.76426 -0.0543,8.54863 0.28012,8.4097 0.33446,-0.13892 5.62929,-6.22743 11.76628,-13.53002 10.99628,-13.08481 11.1859,-13.39656 13.0701,-21.48845 1.05156,-4.51606 1.77695,-8.34601 1.61196,-8.51099 -0.16498,-0.16498 -2.49518,1.04899 -5.17821,2.69772 -2.68304,1.64873 -8.47825,4.4199 -12.87825,6.15816 -8.72209,3.44574 -13.23083,6.49451 -39.5,26.70952 -19.377763,14.91184 -19.743859,15.21147 -18.585939,15.21147 0.447733,0 8.525233,-2.53383 17.949999,-5.63073 z m -36.86406,-24.0454 c 9.9,-7.11072 18.49653,-13.22831 19.1034,-13.59464 0.60687,-0.36633 5.549283,2.24473 10.983139,5.80236 5.433851,3.55762 10.227381,6.46841 10.652281,6.46841 0.4249,0 7.29499,-4.34556 15.26686,-9.65681 l 14.49432,-9.65681 v -14.1346 -14.1346 l -7.20256,-1.69034 c -10.86258,-2.54931 -17.42306,-6.2032 -25.40639,-14.15022 -11.754216,-11.70076 -15.342221,-21.65972 -15.373686,-42.67163 -0.01549,-10.345562 0.198589,-11.790446 1.986698,-13.408663 1.655908,-1.498576 2.437669,-1.616088 4.5,-0.676427 2.448504,1.115613 2.495938,1.353591 2.495938,12.52217 0,6.26172 0.45629,13.80887 1.01399,16.77144 6.16008,32.72359 47.72319,45.21769 72.49271,21.79171 9.35423,-8.84684 12.43111,-17.84491 12.46885,-36.46409 0.0285,-14.083792 0.96826,-16.549378 5.6772,-14.895751 l 2.84725,0.999862 0.28038,13.422529 c 0.15422,7.3824 -0.19791,15.72646 -0.78249,18.54237 -2.75204,13.25653 -12.74439,26.49367 -24.73432,32.76625 -6.13687,3.21053 -9.08234,4.24357 -17.51357,6.14238 l -2.75,0.61933 v 12.48095 c 0,8.59994 0.35084,12.48095 1.12827,12.48095 1.39,0 11.62425,-5.79055 12.37167,-6.99991 0.29821,-0.48251 8.6373,4.98923 18.53129,12.15943 l 17.98909,13.03672 7.51541,-1.67202 7.5154,-1.67202 11.91889,9.08397 c 6.55539,4.99618 12.56595,9.33227 13.3568,9.63575 0.89169,0.34217 2.76835,-1.08617 4.94024,-3.76007 31.07935,-38.26309 37.55398,-94.31449 16.11351,-139.495975 C 243.97426,48.612657 212.6494,23.022622 174.81288,13.169485 160.8802,9.541227 136.24702,8.578713 121.52908,11.08748 34.039741,26.000589 -12.853551,121.22709 28.064615,200.88635 c 4.379467,8.52592 10.21869,17.18319 18.557885,27.51404 0.984088,1.21911 2.23925,2.06342 2.78925,1.87623 0.55,-0.18719 9.1,-6.15821 19,-13.26894 z m 67.90709,-68.31306 c -7.06369,-1.47194 -13.23374,-5.04072 -18.30153,-10.58569 -5.35808,-5.86259 -7.82851,-11.67901 -8.78141,-20.67512 l -0.60906,-5.75 h 9.14245 9.14246 v -3.57097 -3.57097 l -9.0023,0.32097 -9.00229,0.32097 v -5.499997 -5.5 l 9.00229,0.320969 9.0023,0.320969 v -3.570969 -3.570969 h -9 -9 v -5.5 -5.5 h 9 9 v -3.5 -3.5 h -9.13592 -9.13593 l 0.63995,-4.668906 c 3.04946,-22.24823 26.84866,-35.268968 47.36621,-25.914444 10.59407,4.830131 18.40558,15.029002 19.90832,25.992732 l 0.62922,4.590618 h -9.63593 -9.63592 v 3.5 3.5 h 9.5 9.5 v 5.5 5.5 h -9 -9 v 3.5 3.5 h 9 9 v 5 4.999997 l -7.75,0.11848 c -4.2625,0.0652 -8.3125,0.0454 -9,-0.0438 -0.79539,-0.10329 -1.25,1.12654 -1.25,3.38151 v 3.54381 h 9.1446 9.14461 l -0.61612,6.59791 c -0.75493,8.08429 -4.12451,15.62801 -9.28589,20.78898 -7.52442,7.52381 -20.98767,11.70615 -30.98011,9.62392 z m 179.02148,113.98919 c 0,-1.1 0.54643,-2 1.21429,-2 0.66785,0 1.92143,-0.70714 2.78571,-1.57143 1.35198,-1.35198 1.57143,-5.39177 1.57143,-28.92857 0,-23.5368 -0.21945,-27.57659 -1.57143,-28.92857 -0.86428,-0.86429 -1.98928,-1.57143 -2.5,-1.57143 -0.51071,0 -0.92857,-0.9 -0.92857,-2 0,-1.85702 0.66667,-2 9.32545,-2 h 9.32544 l 10.62739,19.25 c 5.84507,10.5875 10.92176,20.0375 11.28155,21 1.74177,4.65962 2.44017,0.29491 2.44017,-15.25 0,-15.66667 -0.15686,-17.15686 -2,-19 -1.1,-1.1 -2.675,-2 -3.5,-2 -0.83333,0 -1.5,-0.88889 -1.5,-2 0,-1.85185 0.66667,-2 9,-2 10.02038,0 11.05124,0.85785 6.5,5.40909 l -2.5,2.5 v 30.54546 30.54545 l -4.75,-0.0222 -4.75,-0.0222 -6.85876,-13.22778 c -3.77232,-7.27528 -10.07232,-19.07778 -14,-26.22778 l -7.14124,-13 -0.29282,20 c -0.35494,24.24321 -0.1284,25.87578 3.81727,27.51013 1.80746,0.74867 2.97555,1.97001 2.97555,3.11119 0,1.70336 -0.86655,1.87868 -9.28571,1.87868 -8.61905,0 -9.28572,-0.14359 -9.28572,-2 z m 56.57143,0.54545 c 0,-0.8 1.02492,-2.4875 2.2776,-3.75 1.72854,-1.74209 4.30313,-9.7083 10.67993,-33.04545 l 8.40235,-30.75 h 4.82006 c 2.65103,0 5.0978,-0.1125 5.43726,-0.25 0.33946,-0.1375 4.11399,12.58114 8.38783,28.26364 8.757,32.13311 9.95645,35.52197 12.90368,36.45739 1.17135,0.37177 2.09129,1.51388 2.09129,2.59636 0,1.80278 -0.80614,1.93261 -12,1.93261 -11.19386,0 -12,-0.12983 -12,-1.93261 0,-1.06294 0.85843,-2.20507 1.90762,-2.53807 2.84566,-0.90318 3.06011,-2.52399 1.30467,-9.86075 l -1.59556,-6.66857 h -8.70862 -8.70863 l -1.15451,5.25 c -0.63498,2.8875 -1.32146,6.0709 -1.52552,7.07421 -0.20407,1.00332 0.49558,2.69082 1.55476,3.75 3.88911,3.88911 2.61074,4.92579 -6.07421,4.92579 -6.33333,0 -8,-0.30303 -8,-1.45455 z m 30.61617,-27.29545 c -0.28523,-0.9625 -1.74107,-6.475 -3.23521,-12.25 -1.49414,-5.775 -3.01419,-10.8506 -3.3779,-11.27912 -0.64334,-0.75797 -7.00306,20.85991 -7.00306,23.80473 0,1.16011 1.5065,1.47439 7.06739,1.47439 6.26174,0 7.00827,-0.19949 6.54878,-1.75 z m 26.38383,26.86663 c 0,-1.03856 0.89172,-2.11656 1.98796,-2.40323 3.66971,-0.95965 4.14601,-4.95586 3.82184,-32.06506 -0.30607,-25.59469 -0.33692,-25.92489 -2.5598,-27.39959 -1.2375,-0.82098 -2.25,-2.26836 -2.25,-3.2164 0,-1.50655 1.58622,-1.8041 12.59108,-2.36185 14.1168,-0.71548 20.00417,0.17433 25.63103,3.8738 9.82595,6.46024 10.22066,20.47079 0.83295,29.56601 l -4.75857,4.61031 6.10175,11.88969 c 4.50266,8.77374 6.9434,12.41383 9.31324,13.88969 1.76631,1.1 3.22881,2.80439 3.25,3.78753 0.0347,1.61006 -0.87301,1.75898 -9.14286,1.5 l -9.18138,-0.28753 -6.1347,-13.5 c -4.88991,-10.7607 -6.57785,-13.56484 -8.31863,-13.81955 -2.13315,-0.31212 -2.18391,-0.0618 -2.18391,10.77144 0,10.75618 0.0729,11.12421 2.41525,12.19145 1.32838,0.60525 2.63625,1.9456 2.90638,2.97856 0.46102,1.76294 -0.26961,1.8781 -11.91525,1.8781 -11.48362,0 -12.40638,-0.14008 -12.40638,-1.88337 z m 29.27457,-36.92966 c 4.93059,-4.93059 4.97826,-15.35619 0.0968,-21.15753 -2.03778,-2.4217 -3.33377,-3.02944 -6.46026,-3.02944 h -3.91111 v 14.13084 14.13084 l 3.70042,-0.60049 c 2.15125,-0.3491 4.90351,-1.80358 6.57415,-3.47422 z m 26.72543,36.81303 c 0,-1.1 0.41786,-2 0.92857,-2 0.51072,0 1.63572,-0.70714 2.5,-1.57143 1.3509,-1.35089 1.57143,-5.35694 1.57143,-28.54545 V 203.5929 l -2.5,-2.5 c -4.53999,-4.53999 -3.62513,-5.05198 10.19409,-5.70493 19.41456,-0.91734 26.60754,1.46037 31.05591,10.2658 4.13578,8.18668 2.51126,16.89702 -4.38348,23.50335 l -4.49303,4.30507 6.10681,12.18232 c 4.51041,8.9977 6.87801,12.62109 9.05693,13.86081 1.62257,0.92317 2.95297,2.46599 2.95645,3.42849 0.006,1.53515 -1.07884,1.75 -8.83256,1.75 H 520.234 l -6.61192,-14 c -5.33409,-11.29433 -7.00796,-14 -8.66113,-14 -1.94165,0 -2.0492,0.57846 -2.0492,11.02144 0,10.78578 0.0534,11.04579 2.5,12.16051 1.375,0.6265 2.5,1.96685 2.5,2.97857 0,1.67934 -1.00117,1.83948 -11.5,1.83948 -10.83333,0 -11.5,-0.11594 -11.5,-2 z m 28.23077,-36.76923 c 3.22443,-3.22443 4.32646,-8.02921 3.34411,-14.58003 -0.93461,-6.23241 -4.30916,-9.65074 -9.52713,-9.65074 h -4.04775 v 14.13084 14.13084 l 3.70042,-0.60049 c 2.13281,-0.34611 4.89927,-1.79934 6.53035,-3.43042 z m 27.76923,37.22126 c 0,-0.85138 1.12252,-2.53888 2.49448,-3.75 2.34072,-2.06629 6.9276,-17.07711 17.93767,-58.70203 l 1.19028,-4.5 5.5196,-0.29486 5.51961,-0.29485 2.23016,8.29485 c 11.33969,42.17686 14.53107,52.34991 17.29222,55.12178 5.09364,5.11344 4.18764,5.67308 -9.18402,5.67308 -11.33333,0 -12,-0.11111 -12,-2 0,-1.1 0.6199,-2 1.37756,-2 3.33482,0 3.91042,-2.70397 2.1258,-9.9863 l -1.7188,-7.0137 h -8.73213 -8.73212 l -1.28489,7.18979 c -1.21096,6.7761 -1.17223,7.28101 0.67318,8.77533 1.07694,0.87205 1.95807,2.36165 1.95807,3.31021 0,1.49492 -1.11013,1.72467 -8.33334,1.72467 -6.8555,0 -8.33333,-0.27452 -8.33333,-1.54797 z m 31,-26.12879 c 0,-2.09741 -6.37581,-24.32324 -6.97748,-24.32324 -0.39643,0 -1.92358,4.6125 -3.39368,10.25 -1.4701,5.6375 -2.94047,11.2625 -3.2675,12.5 -0.57564,2.17826 -0.36769,2.25 6.52203,2.25 3.91415,0 7.11663,-0.30454 7.11663,-0.67676 z m 31.36111,25.92676 c 0.0764,-0.9625 1.3117,-2.26358 2.74514,-2.89128 2.49958,-1.09458 2.63533,-1.57552 3.31693,-11.75076 0.84912,-12.67611 0.54242,-46.51119 -0.42704,-47.11034 -0.37611,-0.23245 -2.33869,0.0343 -4.36128,0.59276 -2.98747,0.82488 -4.25424,2.0374 -6.75162,6.4625 -1.69078,2.99592 -3.75435,5.44712 -4.58569,5.44712 -0.96747,0 -1.29305,-0.56934 -0.90454,-1.58179 0.33385,-0.86998 0.60699,-4.91998 0.60699,-9 v -7.41821 h 23 23 v 9 c 0,4.95 -0.40724,9 -0.90498,9 -0.49774,0 -2.0261,-1.91305 -3.39636,-4.25122 -3.26195,-5.5661 -5.53878,-7.52739 -9.19866,-7.92382 l -3,-0.32496 -0.29064,25.5 c -0.33309,29.22415 -0.0896,31.64182 3.34459,33.20653 1.34533,0.61298 2.44605,1.94227 2.44605,2.95399 0,1.68699 -1.02702,1.83948 -12.38889,1.83948 -11.18518,0 -12.37539,-0.17003 -12.25,-1.75 z m 39.63889,-0.25 c 0,-1.1 0.64286,-2 1.42857,-2 0.78572,0 2.13572,-0.70714 3,-1.57143 1.35198,-1.35198 1.57143,-5.39177 1.57143,-28.92857 0,-23.5368 -0.21945,-27.57659 -1.57143,-28.92857 -0.86428,-0.86429 -2.21428,-1.57143 -3,-1.57143 -0.78571,0 -1.42857,-0.9 -1.42857,-2 0,-1.88889 0.66667,-2 12,-2 10.79528,0 12,0.17698 12,1.76287 0,0.96958 -1.0125,2.20708 -2.25,2.75 -2.24302,0.98407 -2.25087,1.07092 -2.53079,27.98713 -0.15444,14.85 -0.0351,28.00565 0.26523,29.23477 0.31674,1.29639 1.58938,2.49664 3.03079,2.85841 1.55084,0.38924 2.48477,1.33461 2.48477,2.51523 0,1.75457 -0.90546,1.89159 -12.5,1.89159 -11.83333,0 -12.5,-0.10667 -12.5,-2 z m 47.63842,-6.19832 c -1.38278,-4.56593 -5.48064,-18.42668 -9.10637,-30.80168 -5.73694,-19.58082 -6.97755,-22.8338 -9.56214,-25.07283 -5.14198,-4.45448 -4.17975,-4.92717 10.03009,-4.92717 12.33333,0 13,0.10256 13,2 0,1.1 -0.58899,2 -1.30887,2 -0.71988,0 -2.12052,0.59349 -3.11254,1.31887 -1.71036,1.25065 -1.50853,2.40156 3.90189,22.25 3.13805,11.51212 6.02822,21.50997 6.4226,22.21744 0.7142,1.28117 13.11111,-38.57586 13.10176,-42.12317 -0.003,-1.12026 -1.17522,-2.27864 -3.00484,-2.96924 -1.78629,-0.67425 -3,-1.85282 -3,-2.91314 0,-1.57577 1.03601,-1.78076 9,-1.78076 8.33333,0 9,0.14815 9,2 0,1.1 -0.6199,2 -1.37756,2 -2.67191,0 -3.92876,3.26071 -13.00316,33.73477 l -9.1611,30.76523 -4.65281,0.30168 -4.65282,0.30167 z m 38.36158,6.35884 c 0,-1.01172 1.125,-2.35207 2.5,-2.97857 l 2.5,-1.13907 v -27.58718 c 0,-27.58576 -0.43493,-31.4557 -3.53518,-31.4557 -0.80565,0 -1.46482,-0.9 -1.46482,-2 0,-1.9353 0.66667,-2 20.60699,-2 18.38003,0 20.54139,0.17094 20,1.58179 -0.33385,0.86998 -0.60699,4.24498 -0.60699,7.5 0,7.02203 -1.66665,7.84324 -4.87657,2.40283 -2.44016,-4.13575 -5.43776,-5.48462 -12.18853,-5.48462 h -4.9349 v 11.5 11.5 h 5.49153 c 4.40852,0 5.73785,-0.39443 6.74054,-2 0.68696,-1.1 2.04078,-2 3.00848,-2 1.52287,0 1.75945,1.00846 1.75945,7.5 0,6.49154 -0.23658,7.5 -1.75945,7.5 -0.9677,0 -2.32152,-0.9 -3.00848,-2 -1.00269,-1.60557 -2.33202,-2 -6.74054,-2 h -5.49153 v 10.9349 c 0,14.15737 0.70183,16.0651 5.91015,16.0651 5.863,0 9.10613,-1.56409 13.8631,-6.68587 2.35029,-2.53053 4.53692,-4.3373 4.85917,-4.01504 0.32226,0.32225 0.26496,4.21179 -0.12733,8.64341 l -0.71325,8.0575 h -20.89592 c -19.62145,0 -20.89592,-0.11219 -20.89592,-1.83948 z M 447.25711,174.55814 c -6.04617,-1.38879 -12.43856,-7.46232 -15.84638,-15.05596 -4.94878,-11.02734 -4.64986,-30.63884 0.62553,-41.04057 4.93677,-9.73404 13.0755,-15.10587 22.87549,-15.09859 10.01895,0.007 17.74367,5.94789 22.09161,16.98883 3.30231,8.38573 3.29701,27.11311 -0.0101,35.61427 -5.60913,14.41877 -16.97283,21.52372 -29.73617,18.59202 z m 12.65336,-8.87296 c 4.0607,-4.347 5.51123,-11.41425 5.43931,-26.50137 -0.0696,-14.59465 -1.78142,-22.42044 -5.86913,-26.83116 -5.35704,-5.78034 -12.88215,-2.13698 -15.75227,7.62663 -1.68909,5.74598 -1.65019,29.77503 0.0591,36.50087 1.65701,6.52014 6.58954,12.20366 10.59115,12.20366 1.74442,0 3.74244,-1.08306 5.53185,-2.99863 z m 49.50128,9.48588 c -0.55,-0.1779 -2.69712,-0.60751 -4.77138,-0.95468 -4.80784,-0.80469 -10.01629,-5.36811 -12.3212,-10.7953 -1.50582,-3.54565 -1.88997,-8.23622 -2.35349,-28.73727 -0.54715,-24.20015 -0.58147,-24.51208 -2.80393,-25.48713 -1.2375,-0.54292 -2.25,-1.78042 -2.25,-2.75 0,-1.58163 1.1823,-1.76287 11.5,-1.76287 10.3177,0 11.5,0.18124 11.5,1.76287 0,0.96958 -1.0125,2.20708 -2.25,2.75 -2.20338,0.96667 -2.25634,1.38085 -2.55616,19.98713 -0.52592,32.63749 0.7353,37 10.69685,37 10.09881,0 12.10039,-5.4899 12.03157,-33 -0.0463,-18.51481 -0.68348,-22.66693 -3.68099,-23.98713 -1.2327,-0.54292 -2.24127,-1.78042 -2.24127,-2.75 0,-1.54556 1.04779,-1.76287 8.5,-1.76287 7.83333,0 8.5,0.15686 8.5,2 0,1.1 -0.64844,2 -1.44098,2 -0.79254,0 -1.80504,0.5625 -2.25,1.25 -0.44496,0.6875 -1.03402,12.28834 -1.30902,25.77964 -0.48629,23.85728 -0.57,24.66588 -3.05389,29.5 -1.77216,3.44897 -3.76176,5.62183 -6.5,7.09871 -3.73222,2.01298 -10.76202,3.56538 -12.94611,2.8589 z m -177.5,-2.02418 c -18.23257,-8.19629 -21.47922,-43.64431 -5.60648,-61.21353 6.93333,-7.67437 19.94537,-10.66537 31.85648,-7.32265 l 4.75,1.33303 v 7.87004 c 0,9.16226 -1.63308,10.46975 -4.95178,3.96457 -5.78727,-11.344 -18.71716,-10.87694 -23.40757,0.84555 -2.71991,6.79772 -4.01299,20.75009 -2.77537,29.94633 1.80359,13.40169 5.12485,17.47484 13.79821,16.92191 l 4.83651,-0.30832 0.28634,-9.76093 c 0.28285,-9.64171 0.25537,-9.77271 -2.25,-10.72525 -3.72573,-1.41652 -3.27721,-3.99393 0.71366,-4.10105 1.7875,-0.048 6.7375,-0.2831 11,-0.52248 6.93003,-0.3892 7.75,-0.24672 7.75,1.34668 0,0.98007 -0.9,2.344 -2,3.03096 -1.82021,1.13674 -2,2.33202 -2,13.29677 v 12.04776 l -4.75,2.13778 c -6.3289,2.84838 -22.05477,3.5483 -27.25,1.21283 z m 42,-0.34806 c 0,-1.03674 1.125,-2.62212 2.5,-3.52305 l 2.5,-1.63807 v -27.90551 c 0,-24.03532 -0.21794,-28.12346 -1.57143,-29.47695 -0.86428,-0.86429 -1.98928,-1.57143 -2.5,-1.57143 -0.51071,0 -0.92857,-0.83069 -0.92857,-1.84598 0,-1.66643 1.24011,-1.90492 12.75,-2.45197 17.43156,-0.82849 24.35174,0.79795 29.10477,6.84045 6.62355,8.42047 4.57026,23.13978 -3.92819,28.15994 -1.60962,0.95083 -2.92658,2.08925 -2.92658,2.52982 0,0.44058 2.52203,5.85606 5.60451,12.0344 5.7279,11.48065 8.72004,15.73334 11.0698,15.73334 0.7474,0 1.32569,1.09054 1.32569,2.5 0,2.47132 -0.0979,2.5 -8.53181,2.5 h -8.53182 l -6.90282,-14.5 c -5.59756,-11.75816 -7.29337,-14.5 -8.96819,-14.5 -1.9625,0 -2.06536,0.55014 -2.06536,11.04651 v 11.04651 l 2.99368,1.70349 c 1.64652,0.93692 2.99652,2.49099 3,3.45349 0.006,1.5698 -1.22937,1.75 -11.99368,1.75 -11.08928,0 -12,-0.14306 -12,-1.88499 z m 25.4657,-35.53623 c 4.31411,-1.80255 6.5343,-6.07054 6.5343,-12.56124 0,-9.53435 -3.33716,-14.01754 -10.43426,-14.01754 h -3.56574 v 14 c 0,15.69611 9.7e-4,15.69774 7.4657,12.57878 z m 142.5343,35.53623 c 0,-1.03674 1.125,-2.62212 2.5,-3.52305 l 2.5,-1.63807 v -27.90551 c 0,-24.03532 -0.21794,-28.12346 -1.57143,-29.47695 -0.86428,-0.86429 -2.21428,-1.57143 -3,-1.57143 -0.78571,0 -1.42857,-0.9 -1.42857,-2 0,-1.86441 0.66667,-2 9.83349,-2 h 9.8335 l 11.12901,20.25 c 6.12095,11.1375 11.56942,20.925 12.1077,21.75 0.65834,1.00902 0.99292,-4.39179 1.02218,-16.5 0.0239,-9.9 -0.29627,-18.53435 -0.71154,-19.18744 -0.41528,-0.65309 -1.98339,-1.65445 -3.48469,-2.22525 -1.50131,-0.57079 -2.72965,-1.72395 -2.72965,-2.56256 0,-1.25933 1.65368,-1.52475 9.5,-1.52475 8.40738,0 9.5,0.20275 9.5,1.76287 0,0.96958 -0.99787,2.20708 -2.21749,2.75 -3.54209,1.57678 -4.0212,6.87666 -3.36627,37.23713 l 0.60941,28.25 h -4.92611 -4.92611 l -9.21837,-17.75 c -5.07011,-9.7625 -11.52163,-21.8 -14.33672,-26.75 l -5.11834,-9 -0.26955,21.13348 c -0.28886,22.6475 0.20428,25.82091 4.25162,27.3597 1.54632,0.58791 2.51793,1.73862 2.51793,2.98207 0,1.88302 -0.62999,2.02475 -9,2.02475 -8.15029,0 -9,-0.17797 -9,-1.88499 z m 59,0.17146 c 0,-1.11112 1.05659,-2.44685 2.43078,-3.07298 3.40819,-1.55287 3.79221,-5.40232 3.4008,-34.08999 -0.32477,-23.8036 -0.3778,-24.3402 -2.58158,-26.12344 -1.2375,-1.00136 -2.25,-2.53601 -2.25,-3.41035 0,-2.30124 27.49558,-2.32166 34.23466,-0.0254 5.91749,2.01629 11.36739,7.36001 14.65464,14.36913 3.60085,7.67779 3.74154,24.4612 0.27841,33.21367 -2.97339,7.51476 -8.95707,14.1135 -15.86088,17.49122 -5.15292,2.52109 -6.81886,2.78662 -19.96444,3.1821 -13.73801,0.41329 -14.34239,0.34865 -14.34239,-1.53396 z m 29.75419,-8.11144 c 6.55973,-4.67094 11.04908,-19.26722 9.74221,-31.67503 -1.57091,-14.9148 -7.03863,-22.5 -16.21891,-22.5 h -4.27749 v 28.63167 28.63167 l 3.95317,-0.53023 c 2.17425,-0.29163 5.23471,-1.44276 6.80102,-2.55808 z M 327.91175,80.753364 c 0,-1.240599 0.80404,-2.044641 2.25,-2.25 2.03945,-0.289649 2.32434,-1.068158 3.04443,-8.319551 0.43694,-4.4 0.55845,-15.875 0.27001,-25.5 -0.28843,-9.625 -0.53343,-19.1875 -0.54443,-21.25 -0.0174,-3.270674 -0.32232,-3.75 -2.38515,-3.75 -3.22546,0 -7.28469,3.393294 -9.68308,8.094526 -3.41979,6.70333 -4.79639,5.185721 -4.61263,-5.085106 l 0.16085,-8.990581 23.25,-0.0094 23.25,-0.0094 v 9 c 0,6.981343 -0.30923,9 -1.37868,9 -0.75827,0 -1.93873,-1.352071 -2.62323,-3.004602 -1.66921,-4.029839 -7.48348,-8.995398 -10.53289,-8.995398 h -2.4652 l 0.0576,25.25 c 0.0669,29.307027 0.48667,33.109604 3.70583,33.569551 1.43266,0.204694 2.23654,1.013414 2.23654,2.25 3e-5,1.800018 -0.81075,1.930449 -11.99997,1.930449 -11.18922,0 -12,-0.130431 -12,-1.930449 z m 39,0 c 0,-1.236586 0.80388,-2.045306 2.23654,-2.25 3.1581,-0.451223 3.63956,-4.33691 3.69482,-29.819551 0.0552,-25.470007 -0.33508,-28.771195 -3.57641,-30.248041 -1.29522,-0.590144 -2.35495,-1.900757 -2.35495,-2.912474 0,-1.678793 0.99945,-1.839485 11.44098,-1.839485 6.29254,0 11.70227,0.422769 12.02162,0.939486 0.31935,0.516718 -0.53971,1.979218 -1.90903,3.25 -2.26887,2.1056 -2.55018,3.308249 -3.17196,13.560514 l -0.68229,11.25 h 10.25963 10.25964 l -0.68484,-11.25 c -0.5677,-9.325719 -1.01401,-11.533988 -2.6093,-12.910293 -1.05845,-0.913161 -1.92445,-2.375661 -1.92445,-3.25 0,-1.360786 1.65602,-1.589707 11.5,-1.589707 10.3177,0 11.5,0.181238 11.5,1.762872 0,0.969579 -1.00857,2.207079 -2.24127,2.75 -3.12983,1.378475 -3.65085,5.49889 -3.6022,28.487128 0.0533,25.173467 0.6252,30.184877 3.59347,31.487128 1.2375,0.542921 2.25,1.780421 2.25,2.75 0,1.585892 -1.20472,1.762872 -12,1.762872 -9.55712,0 -12,-0.281947 -12,-1.38499 0,-0.761745 1.08165,-2.093716 2.40367,-2.959936 2.15488,-1.411932 2.47672,-2.549224 3.10939,-10.987833 0.38814,-5.177088 0.39193,-11.270116 0.008,-13.540064 l -0.69686,-4.127177 h -8.9121 -8.9121 V 63.16076 c 0,13.271927 0.038,13.501866 2.5,15.11501 1.375,0.900935 2.5,2.261308 2.5,3.023053 0,1.103043 -2.44288,1.38499 -12,1.38499 -11.18922,0 -12,-0.130431 -12,-1.930449 z m 60,0.167577 c 0,-0.969579 1.0125,-2.207079 2.25,-2.75 1.74017,-0.763455 2.40009,-2.120075 2.91239,-5.987128 0.88497,-6.680054 1.00142,-35.260405 0.18311,-44.940955 -0.57751,-6.831958 -0.93039,-7.868417 -3,-8.811393 -1.29002,-0.587775 -2.3455,-1.89645 -2.3455,-2.908167 0,-1.72647 1.26606,-1.839485 20.60699,-1.839485 18.38003,0 20.54139,0.17094 20,1.581787 -0.33385,0.869984 -0.60699,4.244984 -0.60699,7.5 0,7.111401 -0.92422,7.38768 -5.91191,1.767255 -3.34254,-3.766573 -4.21169,-4.194747 -9.38587,-4.62383 l -5.70222,-0.472872 v 11.62383 11.62383 h 4.84501 c 3.57502,0 5.31945,-0.524247 6.65499,-2 3.53004,-3.900654 4.5,-2.607379 4.5,6 0,8.510631 -1.24869,10.270208 -4.16808,5.873381 -1.04331,-1.571307 -2.77246,-2.257341 -6.62197,-2.627229 l -5.20995,-0.500611 v 13.743725 13.743725 l 6.66434,-0.424353 c 6.46905,-0.411918 6.78882,-0.561848 10.91241,-5.116495 5.65064,-6.241333 6.87441,-6.128887 6.07123,0.557857 -0.34683,2.8875 -0.63451,6.4875 -0.63929,8 l -0.009,2.75 h -21 c -19.39174,0 -21,-0.135007 -21,-1.762872 z"
       id="path1" />
  </g>
</svg>
